<svg width="30" height="30" viewBox="0 0 30 30" fill="none" xmlns="http://www.w3.org/2000/svg">
<path d="M15.0022 0.0214844C6.74282 0.0214844 0.0234375 6.74094 0.0234375 15.0002C0.0234375 23.2595 6.74282 29.9789 15.0022 29.9789C23.2615 29.9789 29.9809 23.2595 29.9809 15.0002C29.9809 6.74094 23.2615 0.0214844 15.0022 0.0214844ZM25.5878 24.0872C25.404 24.301 25.0817 24.3254 24.8677 24.1415C24.8651 24.1393 24.8629 24.1368 24.8604 24.1346C24.6283 24.3849 24.3869 24.6264 24.1365 24.8584C24.1388 24.8609 24.1412 24.8631 24.1435 24.8657C24.3273 25.0795 24.303 25.4019 24.0891 25.5858C21.5596 27.7602 18.3325 28.9577 15.0022 28.9577C7.30596 28.9577 1.04471 22.6964 1.04471 15.0002C1.04471 7.30407 7.30596 1.04276 15.0022 1.04276C22.6984 1.04276 28.9596 7.30407 28.9596 15.0002C28.9596 18.3306 27.7622 21.5577 25.5878 24.0872Z" fill="#FC9B09"/>
</svg>
