<svg width="17" height="17" viewBox="0 0 17 17" fill="none" xmlns="http://www.w3.org/2000/svg">
<path d="M14.983 0.574876C14.8872 0.479148 14.7573 0.425293 14.6219 0.425293C14.4865 0.425293 14.3566 0.47908 14.2609 0.574876L9.0853 5.75043C8.88595 5.94979 8.88588 6.27299 9.0851 6.47241C9.28465 6.67204 9.60799 6.67203 9.80741 6.47261L14.6218 1.65811L15.344 2.38029L9.63645 8.08786C9.37643 7.62386 8.92482 7.28119 8.38927 7.1681C8.36789 7.16361 8.34624 7.1598 8.32465 7.15598L3.90995 2.74128C3.71052 2.54186 3.38719 2.54186 3.18783 2.74128L1.74354 4.18557C1.54412 4.38499 1.54412 4.70832 1.74354 4.90768L6.15825 9.32238C6.19502 9.53304 6.26692 9.73171 6.36795 9.91207L1.02457 15.2555C0.825145 15.4549 0.825145 15.7782 1.02457 15.9776C1.12424 16.0772 1.25497 16.1272 1.38562 16.1272C1.51628 16.1272 1.647 16.0773 1.74668 15.9776L7.09007 10.6342C7.36016 10.7855 7.67117 10.8722 8.0022 10.8722C8.92462 10.8722 9.69282 10.2016 9.84615 9.32238L16.4273 2.74128C16.6267 2.54186 16.6267 2.21852 16.4273 2.01917L14.983 0.574876ZM7.09007 7.36569C6.78784 7.53501 6.53721 7.78563 6.36789 8.08786L2.82678 4.54676L3.54896 3.82458L7.09007 7.36569ZM7.15114 9C7.15114 8.53069 7.53289 8.14894 8.0022 8.14894C8.47151 8.14894 8.85327 8.53069 8.85327 9C8.85327 9.46931 8.47151 9.85107 8.0022 9.85107C7.53289 9.85107 7.15114 9.46931 7.15114 9Z" fill="#37373F"/>
</svg>
