<svg width="28" height="28" viewBox="0 0 28 28" fill="none" xmlns="http://www.w3.org/2000/svg">
<path d="M14.0043 0.0424805C6.30812 0.0424805 0.046875 6.30379 0.046875 13.9999C0.046875 21.6961 6.30812 27.9574 14.0043 27.9574C17.3347 27.9574 20.5618 26.76 23.0913 24.5856C23.3052 24.4018 23.3295 24.0793 23.1456 23.8655C23.1434 23.8629 23.1409 23.8607 23.1387 23.8582C22.9538 23.6514 22.6368 23.6295 22.4255 23.8111C20.0813 25.8263 17.0905 26.9361 14.0043 26.9361C6.87132 26.9361 1.06815 21.1329 1.06815 13.9999C1.06815 6.86692 6.87132 1.06376 14.0043 1.06376C21.1373 1.06376 26.9405 6.86692 26.9405 13.9999C26.9405 17.0862 25.8307 20.0769 23.8155 22.4212C23.6339 22.6324 23.6558 22.9494 23.8626 23.1344C23.8651 23.1366 23.8673 23.1391 23.8699 23.1413C24.0838 23.3251 24.4062 23.3008 24.59 23.087C26.7644 20.5574 27.9618 17.3303 27.9618 13.9999C27.9618 6.30379 21.7005 0.0424805 14.0043 0.0424805Z" fill="#37373F"/>
</svg>
